<svg width="92" height="32" viewBox="0 0 92 32" fill="none" xmlns="http://www.w3.org/2000/svg">
<path d="M87.5366 16.7855C87.0832 17.3379 86.6638 17.9015 86.1764 18.4088C85.3603 19.243 84.3628 19.4234 83.252 19.0965C83.1953 19.0739 83.1273 19.0739 83.0253 19.0627C83.1727 19.5136 82.9686 19.8743 82.7986 20.2351C82.4019 21.058 81.8805 21.7795 81.1891 22.3882C79.4775 23.8875 76.7911 23.5155 75.3742 22.1402C74.4447 21.2271 73.878 20.1223 73.5719 18.8823C73.1072 17.0335 73.0279 15.1622 73.1639 13.2683C73.2886 11.5774 73.5493 9.89771 74.1387 8.29694C74.5354 7.226 75.0455 6.23398 75.9069 5.45614C76.7231 4.71212 77.6752 4.41902 78.752 4.63321C80.0556 4.89249 80.917 5.96342 80.9283 7.37255C80.951 8.80422 80.6336 10.1908 80.1689 11.5323C79.3755 13.8433 78.2306 15.9626 76.6664 17.8452C76.5417 18.003 76.4624 18.1383 76.5077 18.3525C76.7344 19.3107 77.1991 20.1449 77.9246 20.7987C78.786 21.5653 80.1349 21.5089 81.121 20.686C81.5518 20.3252 81.8918 19.8969 82.0845 19.3558C82.1639 19.1303 82.2999 18.9274 82.4246 18.6681C82.4359 18.6794 82.4359 18.7019 82.4246 18.6681C81.6424 17.9917 81.3251 17.1012 81.3137 16.0866C81.3024 15.2749 81.3704 14.4745 81.7218 13.7193C81.7671 13.6065 81.8351 13.5051 81.8918 13.4036C82.2205 12.9076 82.81 12.9189 83.116 13.4487C83.354 13.8545 83.422 14.3167 83.422 14.7789C83.4334 15.32 83.422 15.8611 83.422 16.4135C83.422 16.5713 83.456 16.7292 83.5014 16.887C83.6261 17.3266 84.0568 17.4619 84.3968 17.1575C84.6235 16.9546 84.8276 16.7066 84.9863 16.4473C85.4397 15.7033 85.8704 14.9367 86.3011 14.1927C86.5618 13.7531 86.9359 13.46 87.4233 13.3022C88.1147 13.0767 88.6135 13.2007 88.9988 13.8094C89.3616 14.3844 89.6903 15.0044 89.9056 15.6469C90.6764 17.9466 91.1525 20.3252 91.1978 22.7602C91.2318 24.857 90.8691 26.8974 89.747 28.7124C88.8855 30.0989 87.7293 31.1812 86.1311 31.6546C83.1613 32.5339 81.1437 30.8317 80.5883 28.3404C80.0669 25.9956 81.2684 24.2144 82.946 23.1773C83.9661 22.5348 85.0883 22.1064 86.3011 21.9824C86.5845 21.9486 86.8792 21.9824 87.1739 22.0162C87.4006 22.0387 87.446 22.174 87.2873 22.3431C87.1853 22.4558 87.0606 22.5348 86.9359 22.6249C86.1651 23.166 85.3603 23.6621 84.6462 24.2708C84.1248 24.7104 83.6827 25.2741 83.2634 25.8152C82.9686 26.1872 82.844 26.6494 82.912 27.1454C82.9913 27.7767 83.4447 28.2164 84.0908 28.2614C84.5782 28.2953 85.0543 28.2389 85.4963 28.036C87.1626 27.3032 88.1601 26.0745 88.4094 24.2595C88.6588 22.4784 88.4434 20.7311 88.0921 18.9838C87.956 18.3299 87.7747 17.6986 87.6046 17.0448C87.5933 16.9433 87.5593 16.8419 87.5366 16.7855ZM76.2243 15.8499C76.247 15.8499 76.281 15.8611 76.3037 15.8611C76.4397 15.6357 76.5644 15.4102 76.6891 15.1847C77.9132 12.9414 78.9447 10.6305 79.1374 8.03766C79.1714 7.6431 79.1374 7.226 79.0467 6.84272C78.9334 6.36925 78.4687 6.14379 78.0266 6.35798C77.7319 6.49326 77.4258 6.71872 77.2671 6.98927C76.9724 7.50783 76.7231 8.0602 76.5757 8.63513C76.077 10.6079 76.0543 12.6258 76.1336 14.6436C76.1677 15.0495 76.2017 15.4553 76.2243 15.8499Z" fill="#2B41B7"/>
<path d="M36.9828 21.43C36.518 21.8696 36.0986 22.2642 35.7019 22.6813C35.6339 22.7489 35.6452 22.9067 35.6566 23.0195C35.8719 24.7781 35.9059 26.5367 35.4979 28.2727C35.3278 28.9829 35.1125 29.6931 34.6931 30.3018C34.081 31.1924 33.2876 31.8124 32.1881 31.9703C31.2133 32.1055 30.3971 31.7786 29.7964 31.0008C29.1163 30.1215 29.0143 29.1182 29.1843 28.0585C29.513 26.0745 30.7145 24.6653 32.2447 23.4704C32.3014 23.4253 32.3581 23.3689 32.4261 23.3351C32.8001 23.1773 32.8795 22.918 32.7661 22.5347C32.4714 21.4751 32.3014 20.3703 31.712 19.4008C31.5646 19.1641 31.4059 18.9386 31.1339 18.6455C31.0659 18.747 31.0206 18.871 30.9412 18.9499C30.4991 19.2994 30.0798 19.6714 29.6037 19.9758C29.0936 20.314 28.5722 20.2463 28.0961 19.8518C27.3934 19.2656 26.974 18.499 26.6906 17.6535C26.2259 16.2669 26.4639 14.9593 27.0647 13.6741C27.5521 12.637 28.8442 12.1072 29.9324 12.4228C30.9866 12.7272 31.9387 13.2232 32.7888 13.9222C32.8908 14.0123 33.0042 14.1138 33.0835 14.2265C33.1402 14.3167 33.1855 14.452 33.1515 14.5309C33.1175 14.5985 32.9588 14.6662 32.8682 14.6549C32.5168 14.6324 32.1541 14.5647 31.8027 14.5309C31.2926 14.4858 30.7712 14.4294 30.2498 14.3956C29.8077 14.3731 29.4903 14.5647 29.309 14.9705C28.9123 15.8498 28.7422 16.7517 28.9236 17.7099C28.9463 17.8001 28.9689 17.8903 29.0029 17.9804C29.1956 18.4652 29.411 18.5215 29.8191 18.1834C30.1704 17.9015 30.4991 17.5972 30.8732 17.3266C31.848 16.6164 32.7775 16.7291 33.5143 17.6986C34.3077 18.7357 34.9198 19.8743 35.1805 21.1707C35.1918 21.2045 35.2032 21.2383 35.2145 21.3173C35.3165 21.2609 35.4072 21.2271 35.4865 21.1707C35.8833 20.934 36.2687 20.6747 36.6654 20.4492C36.8694 20.3365 36.9261 20.2012 36.9261 19.987C36.9034 18.1721 36.8467 16.3684 36.8694 14.5534C36.9034 12.389 36.9828 10.2246 37.1074 8.06019C37.1528 7.19216 37.3455 6.32414 37.5268 5.45612C37.7309 4.45282 38.2749 4.21609 39.2951 4.45282C40.6666 4.75719 41.8568 6.27905 41.9815 7.60927C42.1855 9.62713 41.5734 11.4195 40.6553 13.1556C40.3606 13.7305 40.0545 14.2942 39.7598 14.8691C39.7031 14.9818 39.6691 15.1058 39.6805 15.2636C39.7372 15.1847 39.7825 15.1171 39.8392 15.0382C40.3152 14.3054 40.8707 13.6516 41.5848 13.1443C42.9223 12.2087 44.4412 12.5581 45.2346 13.9898C45.6427 14.7113 45.8354 15.5116 45.9147 16.3233C46.0167 17.3379 46.0507 18.3637 46.1528 19.3783C46.1981 19.9419 46.2661 20.5169 46.3908 21.0692C46.6402 22.2529 47.819 23.2337 49.0318 23.3577C49.1565 23.3689 49.3152 23.4929 49.3719 23.6169C49.4059 23.6846 49.2812 23.8875 49.1905 23.9326C48.8618 24.0679 48.5331 24.237 48.1817 24.2708C46.7648 24.4173 45.552 23.91 44.5092 22.9744C44.0104 22.5235 43.7837 21.8922 43.6591 21.2609C43.455 20.2238 43.3077 19.1754 43.149 18.127C43.0356 17.3491 42.9903 16.56 42.6389 15.8273C42.3669 15.2636 41.7774 15.1509 41.3127 15.568C41.1654 15.7033 41.018 15.8498 40.9387 16.0189C40.712 16.5262 40.4739 17.0448 40.3266 17.5746C39.9979 18.7583 39.8845 19.987 39.8052 21.2158C39.7825 21.5202 39.7712 21.8358 39.7145 22.1402C39.6125 22.6587 39.1931 22.9744 38.683 22.8504C38.2863 22.7602 37.8896 22.6024 37.5382 22.3882C37.3341 22.2642 37.2321 21.9824 37.0961 21.7682C37.0508 21.7118 37.0394 21.6103 36.9828 21.43ZM39.1364 13.46C39.1704 13.46 39.2044 13.4712 39.2498 13.4712C39.2724 13.4149 39.3064 13.3585 39.3291 13.3021C39.8052 11.8705 40.2132 10.4162 40.4286 8.91693C40.5533 8.01509 40.4739 7.12453 40.0999 6.27905C40.0432 6.15505 39.8845 5.98595 39.7938 5.99722C39.6691 6.01977 39.5558 6.17759 39.4651 6.29032C39.4084 6.36923 39.3858 6.48196 39.3631 6.58342C39.2838 7.06816 39.1591 7.54163 39.1591 8.02637C39.1251 9.84132 39.1364 11.645 39.1364 13.46ZM32.8228 24.9584C32.2447 25.4657 31.746 25.9956 31.3833 26.6381C31.0319 27.2469 30.9412 27.8894 31.0999 28.5545C31.1566 28.7687 31.2813 28.9942 31.4173 29.1633C31.6553 29.4564 32.0294 29.4676 32.2901 29.1971C32.4601 29.0167 32.5961 28.7913 32.6641 28.5545C32.9928 27.416 32.9248 26.2436 32.8682 25.0712C32.8682 25.0486 32.8455 25.0261 32.8228 24.9584Z" fill="#2B41B7"/>
<path d="M6.69562 13.3811C7.40972 13.3585 8.02181 13.4374 8.58856 13.7193C9.68805 14.2378 10.3681 15.1284 10.7309 16.2444C11.2183 17.7099 11.2296 19.1754 10.4588 20.5507C9.38201 22.4559 6.8203 23.3239 4.85935 22.4784C4.2586 22.2191 3.79386 21.8133 3.41981 21.2835C3.36313 21.2045 3.30646 21.1256 3.18178 21.0693C3.18178 21.182 3.19311 21.2835 3.18178 21.3962C3.15911 21.7231 3.15911 22.05 3.0911 22.3657C3.00042 22.749 2.66037 22.9293 2.26364 22.873C1.39085 22.7602 0.84677 22.2417 0.495386 21.4751C0.189342 20.81 0.109997 20.0885 0.0533219 19.367C-0.105368 17.2928 0.0986618 15.2299 0.552061 13.2007C0.84677 11.8705 1.17548 10.5515 1.75357 9.32279C2.33165 8.09403 3.17044 7.09073 4.28127 6.27908C5.76615 5.19687 8.25984 5.88452 9.00795 7.71075C9.29133 8.40968 9.16664 9.08606 8.93994 9.77371C8.53188 11.0363 7.82911 12.1298 6.94499 13.0993C6.87698 13.1669 6.80897 13.2458 6.69562 13.3811ZM6.01552 17.1124C6.01552 17.1575 6.00418 17.2026 6.00418 17.2477C5.78882 17.3717 5.57345 17.4957 5.34676 17.6197C4.746 17.9692 4.26993 18.4088 4.08857 19.0965C3.90721 19.7729 4.11124 20.2238 4.73467 20.5282C5.35809 20.8325 5.99285 20.81 6.63894 20.6409C7.82911 20.3253 8.6679 19.6601 8.87193 18.3863C9.01929 17.4845 8.8946 16.6052 8.47521 15.7935C7.88579 14.6549 7.09234 14.2153 5.82282 14.4069C4.07724 14.6775 3.69185 15.2637 3.48782 16.3346C3.41981 16.7066 3.36313 17.1012 3.44248 17.5183C3.55583 17.4506 3.62384 17.4055 3.70318 17.3605C4.2586 17.0786 4.84802 16.8644 5.49411 16.9208C5.66413 16.9434 5.83416 17.0448 6.01552 17.1124ZM7.4664 9.07479C7.4664 9.00715 7.4664 8.96206 7.4664 8.90569C7.43239 8.61259 7.42106 8.29695 7.08101 8.1504C6.75229 8.01512 6.48025 8.13912 6.23088 8.35331C6.1402 8.42095 6.04952 8.49986 5.98151 8.59005C5.60746 9.13115 5.21074 9.64971 4.88202 10.2134C4.43996 10.9912 4.09991 11.8141 3.92988 12.6934C3.8392 13.1218 3.90721 13.1894 4.32661 13.0993C4.42862 13.0767 4.53064 13.0542 4.63265 13.0203C6.38957 12.468 7.40972 10.529 7.4664 9.07479Z" fill="#2B41B7"/>
<path d="M57.0341 18.0481C57.0115 18.8936 57.1248 19.694 57.6462 20.3929C57.9749 20.8213 58.4397 20.9453 58.9611 20.8776C59.5958 20.7874 60.1853 20.5845 60.6047 20.0885C61.0694 19.5587 61.4774 18.9838 61.9082 18.4314C62.0329 18.2736 62.1122 17.9917 62.3842 18.0706C62.6676 18.1495 62.7243 18.4314 62.679 18.6681C62.5996 19.1416 62.5203 19.6376 62.3276 20.0772C61.6928 21.5315 60.65 22.5573 59.0518 22.918C57.1362 23.3351 55.2432 22.4333 54.3591 20.6973C53.7243 19.4572 53.5996 18.1383 53.7017 16.7855C53.7923 15.6469 54.1437 14.5985 54.7331 13.6065C55.4699 12.3439 56.5921 11.645 57.9636 11.2843C58.6097 11.1152 59.2785 11.0137 59.9472 11.1152C60.9107 11.273 61.6135 11.9832 61.7722 12.9414C61.8968 13.6742 61.7948 14.3844 61.4661 15.0495C60.582 16.8193 59.1765 17.8677 57.1588 18.0143C57.1362 18.0143 57.1022 18.0255 57.0341 18.0481ZM56.9888 16.2331C58.2243 15.94 59.1765 15.3538 59.8225 14.3393C60.0492 13.9898 60.1739 13.584 60.0379 13.1669C60.0039 13.0767 59.8679 12.9414 59.7885 12.9527C59.4825 12.9865 59.1538 12.9978 58.8931 13.1331C57.8616 13.708 57.2722 14.6324 56.9888 15.7597C56.9548 15.8837 56.9888 16.0302 56.9888 16.2331Z" fill="#2B41B7"/>
<path d="M51.9564 10.0104C52.5458 10.0104 53.0899 9.99914 53.634 10.0104C53.8833 10.0217 54.1327 10.078 54.3821 10.1344C54.5861 10.1795 54.7901 10.2697 54.8241 10.5177C54.8581 10.7657 54.7335 10.9573 54.5294 11.0475C54.1214 11.2504 53.7133 11.4308 53.2939 11.5774C52.9085 11.7126 52.4891 11.7915 52.1377 11.8817C52.1377 12.5468 52.1264 13.2007 52.1377 13.8545C52.1944 16.0527 52.2511 18.2397 52.0357 20.4267C51.9791 20.9678 51.8317 21.5202 51.5937 22.0049C51.1743 22.8616 50.5168 22.6926 49.8141 22.3431C49.6781 22.2754 49.5987 22.0162 49.576 21.8245C49.4514 20.7761 49.2927 19.7277 49.2587 18.6681C49.1793 16.6277 49.168 14.5873 49.1226 12.5356C49.1226 12.4679 49.1113 12.4116 49.1113 12.3101C48.998 12.3214 48.9073 12.3326 48.8053 12.3439C48.2499 12.4341 47.6944 12.4905 47.1504 12.3101C47.0483 12.2763 46.9577 12.2425 46.867 12.1861C46.4136 11.9043 46.3682 11.3519 46.8216 11.0926C47.3317 10.7995 47.8871 10.5853 48.4425 10.3824C48.9413 10.202 48.9753 10.2359 48.9753 9.71731C48.9866 8.84929 48.9753 7.96999 48.9866 7.10197C48.998 6.58341 49.0093 6.07613 49.066 5.55757C49.1113 5.11792 49.372 4.94882 49.8027 4.9601C50.5849 4.99392 51.877 5.9183 51.843 7.02306C51.809 8.01508 51.911 9.00711 51.9564 10.0104Z" fill="#2B41B7"/>
<path d="M15.7749 14.4633C16.3416 14.0688 16.8857 13.6404 17.4751 13.3022C18.0986 12.9415 18.756 12.6709 19.5041 12.716C19.6401 12.7273 19.7648 12.7386 19.9008 12.7724C20.3429 12.8626 20.4336 13.0429 20.2295 13.4488C19.9802 13.9335 19.5721 14.3055 19.0394 14.4182C17.5885 14.7339 16.8857 15.7372 16.6137 17.0674C16.4436 17.8791 16.455 18.7245 16.3756 19.5475C16.3076 20.1562 16.285 20.7875 16.1263 21.3737C15.9676 21.9824 15.5708 22.4559 14.8908 22.5912C14.324 22.7039 13.8253 22.501 13.4965 22.005C13.0998 21.4075 13.0091 20.7311 12.9865 20.0435C12.9525 19.0402 12.9978 18.0369 12.9638 17.0336C12.9298 16.1317 12.8845 15.2412 12.7484 14.3506C12.6238 13.5164 12.227 13.2346 11.3769 13.1895C11.1389 13.1782 10.8442 13.2233 10.7648 12.9189C10.6968 12.6484 10.9348 12.5018 11.1162 12.3553C11.9097 11.7465 13.2812 11.5098 14.2787 12.4455C14.9021 13.0429 15.4688 13.6855 15.7749 14.4633Z" fill="#2B41B7"/>
<path d="M67.6665 14.4633C68.2332 14.0688 68.7546 13.6517 69.3327 13.3135C69.9561 12.9415 70.6362 12.6709 71.3957 12.716C71.5317 12.7273 71.6564 12.7386 71.7924 12.7724C72.2345 12.8626 72.3252 13.0429 72.1211 13.4488C71.8718 13.9335 71.4637 14.3055 70.931 14.4182C69.4801 14.7339 68.7773 15.7372 68.5053 17.0674C68.3352 17.8791 68.3466 18.7245 68.2672 19.5475C68.1992 20.1562 68.1766 20.7875 68.0179 21.3737C67.8592 21.9824 67.4625 22.4559 66.7824 22.5912C66.2043 22.7039 65.7395 22.5123 65.4108 22.0275C65.0028 21.4301 64.9121 20.7311 64.8781 20.0435C64.8441 19.0402 64.8894 18.0369 64.8554 17.0336C64.8214 16.143 64.7761 15.2412 64.64 14.3506C64.5154 13.5164 64.1186 13.2346 63.2685 13.1895C63.0305 13.1782 62.7358 13.2233 62.6564 12.9189C62.5884 12.6484 62.8264 12.5018 63.0078 12.3553C63.8013 11.7465 65.1728 11.5098 66.1703 12.4455C66.7937 13.0429 67.3491 13.6855 67.6665 14.4633Z" fill="#2B41B7"/>
<path d="M20.479 17.7212C20.5357 16.6953 20.5357 15.6695 20.8871 14.6887C20.9891 14.4182 21.1024 14.1476 21.2384 13.8884C21.6465 13.1105 22.3719 12.8174 23.1994 12.7723C23.8115 12.7385 24.1402 13.1331 24.0382 13.7418C23.9702 14.1364 23.8455 14.5309 23.8115 14.9255C23.6528 16.4699 23.6075 18.0143 24.0042 19.5361C24.0495 19.7391 24.1402 19.9194 24.2195 20.1111C24.5369 21.0016 25.7724 21.1482 26.3392 20.5845C26.5319 20.3816 26.7132 20.1674 26.9059 19.9645C27.0306 19.8405 27.1553 19.694 27.3027 19.615C27.5634 19.4685 27.7561 19.5812 27.7561 19.8856C27.7561 20.0321 27.7334 20.19 27.6767 20.3252C27.11 21.9035 25.5344 23.2562 23.5281 22.9068C21.6352 22.5799 20.9551 21.6104 20.683 20.0096C20.5583 19.2543 20.547 18.4765 20.479 17.7212Z" fill="#2B41B7"/>
<path d="M22.916 11.3069C22.4173 11.3519 21.9979 11.0927 21.7485 10.5741C21.5105 10.0781 21.5558 9.59336 21.8959 9.15371C22.2812 8.64643 22.848 8.59006 23.4034 8.70279C23.7888 8.7817 24.1628 8.98462 24.4802 9.21008C24.8543 9.46936 24.9223 9.85264 24.7523 10.2923C24.5029 10.9461 23.8681 11.3069 22.916 11.3069Z" fill="#FF9900"/>
<path d="M23.392 4.99217C23.3348 5.23468 23.2919 5.67321 23.2676 6.06504C23.2554 6.26243 23.2477 6.45087 23.2454 6.60081C23.2442 6.67571 23.2444 6.74183 23.2461 6.79507C23.2477 6.84518 23.2508 6.89258 23.2579 6.92465C23.2587 6.92803 23.2596 6.93137 23.2607 6.93466C23.2924 7.03304 23.3512 7.11027 23.4342 7.15888C23.5143 7.20579 23.6073 7.22047 23.7015 7.21367C23.8874 7.2121 24.0416 7.11468 24.1327 6.97366C24.2034 6.86425 24.2496 6.72448 24.2863 6.59511C24.3005 6.5451 24.3131 6.49727 24.3252 6.45167L24.3252 6.45166C24.346 6.37275 24.3651 6.30048 24.3874 6.23511C24.6055 5.64759 24.7005 5.13922 24.8039 4.58572L24.8039 4.58565C24.8348 4.42024 24.8664 4.25078 24.9024 4.07399C24.9031 4.07057 24.9036 4.06712 24.904 4.06366C24.9394 3.73492 25.0098 3.35686 25.0702 3.03264L25.0728 3.01917C25.1299 2.74191 25.1925 2.46454 25.2557 2.18465L25.2667 2.13602C25.3335 1.83979 25.4006 1.54076 25.4616 1.23835C25.5229 0.947655 25.5718 0.657315 25.6203 0.369569L25.6203 0.369558L25.6205 0.368468L25.6207 0.366851L25.621 0.365209C25.6363 0.254517 25.6093 0.104447 25.4635 0.0362551C25.3172 -0.0460801 25.176 0.0254231 25.1048 0.115323C25.0059 0.230274 24.9043 0.360966 24.8269 0.494182L24.8262 0.495369C24.5652 0.957097 24.3921 1.44302 24.2221 1.93174L24.2219 1.93216C23.8797 2.92875 23.6354 3.96223 23.3926 4.98938L23.392 4.99217Z" fill="#FF9900"/>
<path d="M23.392 4.99217C23.3348 5.23468 23.2919 5.67321 23.2676 6.06504C23.2554 6.26243 23.2477 6.45087 23.2454 6.60081C23.2442 6.67571 23.2444 6.74183 23.2461 6.79507C23.2477 6.84518 23.2508 6.89258 23.2579 6.92465C23.2587 6.92803 23.2596 6.93137 23.2607 6.93466C23.2924 7.03304 23.3512 7.11027 23.4342 7.15888C23.5143 7.20579 23.6073 7.22047 23.7015 7.21367C23.8874 7.2121 24.0416 7.11468 24.1327 6.97366C24.2034 6.86425 24.2496 6.72448 24.2863 6.59511C24.3005 6.5451 24.3131 6.49727 24.3252 6.45167L24.3252 6.45166C24.346 6.37275 24.3651 6.30048 24.3874 6.23511C24.6055 5.64759 24.7005 5.13922 24.8039 4.58572L24.8039 4.58565C24.8348 4.42024 24.8664 4.25078 24.9024 4.07399C24.9031 4.07057 24.9036 4.06712 24.904 4.06366C24.9394 3.73492 25.0098 3.35686 25.0702 3.03264L25.0728 3.01917C25.1299 2.74191 25.1925 2.46454 25.2557 2.18465L25.2667 2.13602C25.3335 1.83979 25.4006 1.54076 25.4616 1.23835C25.5229 0.947655 25.5718 0.657315 25.6203 0.369569L25.6203 0.369558L25.6205 0.368468L25.6207 0.366851L25.621 0.365209C25.6363 0.254517 25.6093 0.104447 25.4635 0.0362551C25.3172 -0.0460801 25.176 0.0254231 25.1048 0.115323C25.0059 0.230274 24.9043 0.360966 24.8269 0.494182L24.8262 0.495369C24.5652 0.957097 24.3921 1.44302 24.2221 1.93174L24.2219 1.93216C23.8797 2.92875 23.6354 3.96223 23.3926 4.98938L23.392 4.99217Z" stroke="#FF9900"/>
<path d="M19.578 6.08706C19.7129 6.2969 19.9991 6.63325 20.2646 6.92376C20.3983 7.07012 20.5288 7.20698 20.6353 7.31318C20.6884 7.36622 20.7362 7.4122 20.7758 7.44811C20.813 7.48192 20.8493 7.51276 20.8774 7.53001C20.8804 7.53182 20.8834 7.5335 20.8866 7.53504C20.9796 7.58098 21.0763 7.59294 21.1691 7.56767C21.2588 7.54328 21.3343 7.48718 21.395 7.41532C21.5235 7.28164 21.5608 7.10378 21.5227 6.94051C21.4931 6.81384 21.4246 6.68345 21.3569 6.56709C21.3308 6.52212 21.3051 6.47977 21.2806 6.43938L21.2806 6.43935C21.2383 6.36947 21.1995 6.30546 21.1679 6.244C20.8965 5.67889 20.5963 5.25672 20.2694 4.79709L20.2694 4.79703C20.1717 4.65967 20.0716 4.51895 19.9693 4.37007C19.9673 4.3672 19.9652 4.36441 19.9629 4.36173C19.7507 4.10729 19.5273 3.79346 19.3357 3.52433L19.3278 3.51315C19.1678 3.27908 19.0115 3.04106 18.8538 2.80089L18.8264 2.75915C18.6595 2.50498 18.4907 2.24864 18.3153 1.99426C18.1485 1.74793 17.9733 1.51061 17.7997 1.27541L17.7991 1.27452L17.7981 1.2732L17.7971 1.27189C17.728 1.18379 17.601 1.09839 17.4502 1.15479C17.2888 1.2017 17.2419 1.35219 17.257 1.46568C17.2709 1.61633 17.2943 1.77984 17.3364 1.92794L17.3367 1.92925C17.4876 2.43725 17.7171 2.89949 17.9508 3.36144L17.951 3.36183C18.4307 4.3007 19.0053 5.19542 19.5764 6.08464L19.578 6.08706Z" fill="#FF9900"/>
<path d="M19.578 6.08706C19.7129 6.2969 19.9991 6.63325 20.2646 6.92376C20.3983 7.07012 20.5288 7.20698 20.6353 7.31318C20.6884 7.36622 20.7362 7.4122 20.7758 7.44811C20.813 7.48192 20.8493 7.51276 20.8774 7.53001C20.8804 7.53182 20.8834 7.5335 20.8866 7.53504C20.9796 7.58098 21.0763 7.59294 21.1691 7.56767C21.2588 7.54328 21.3343 7.48718 21.395 7.41532C21.5235 7.28164 21.5608 7.10378 21.5227 6.94051C21.4931 6.81384 21.4246 6.68345 21.3569 6.56709C21.3308 6.52212 21.3051 6.47977 21.2806 6.43938L21.2806 6.43935C21.2383 6.36947 21.1995 6.30546 21.1679 6.244C20.8965 5.67889 20.5963 5.25672 20.2694 4.79709L20.2694 4.79703C20.1717 4.65967 20.0716 4.51895 19.9693 4.37007C19.9673 4.3672 19.9652 4.36441 19.9629 4.36173C19.7507 4.10729 19.5273 3.79346 19.3357 3.52433L19.3278 3.51315C19.1678 3.27908 19.0115 3.04106 18.8538 2.80089L18.8264 2.75915C18.6595 2.50498 18.4907 2.24864 18.3153 1.99426C18.1485 1.74793 17.9733 1.51061 17.7997 1.27541L17.7991 1.27452L17.7981 1.2732L17.7971 1.27189C17.728 1.18379 17.601 1.09839 17.4502 1.15479C17.2888 1.2017 17.2419 1.35219 17.257 1.46568C17.2709 1.61633 17.2943 1.77984 17.3364 1.92794L17.3367 1.92925C17.4876 2.43725 17.7171 2.89949 17.9508 3.36144L17.951 3.36183C18.4307 4.3007 19.0053 5.19542 19.5764 6.08464L19.578 6.08706Z" stroke="#FF9900"/>
<path d="M18.4474 10.4275C18.695 10.4654 19.1074 10.5077 19.5326 10.5429C19.7314 10.5397 19.9209 10.5328 20.0714 10.5234C20.1466 10.5188 20.2129 10.5135 20.2661 10.5077C20.3162 10.5022 20.3635 10.4955 20.3951 10.4859C20.3984 10.4849 20.4017 10.4837 20.4049 10.4824C20.5011 10.4433 20.5739 10.379 20.6162 10.293C20.657 10.2099 20.6646 10.1165 20.6504 10.0237C20.6345 9.83943 20.5248 9.69407 20.3764 9.61468C20.2613 9.55308 20.1176 9.5181 19.985 9.49175C19.9338 9.48156 19.8849 9.47274 19.8382 9.46432L19.8382 9.46432C19.7575 9.44975 19.6836 9.43641 19.6163 9.41939C19.0104 9.24868 18.4934 9.19391 17.9306 9.13428L17.9305 9.13427C17.7623 9.11645 17.5899 9.09819 17.4099 9.07628C17.4064 9.07585 17.4029 9.07559 17.3994 9.07549C17.0671 9.06587 16.6827 9.02531 16.353 8.99053L16.3393 8.98908C16.0569 8.95388 15.774 8.91331 15.4885 8.87238L15.4389 8.86527C15.1368 8.82197 14.8318 8.7786 14.5239 8.7415C14.2278 8.70332 13.9329 8.67731 13.6407 8.65153L13.6407 8.65153L13.6396 8.65143L13.6379 8.6513L13.6363 8.65119C13.5241 8.64457 13.3758 8.68295 13.3187 8.83281C13.2475 8.98427 13.3301 9.11869 13.4258 9.1824C13.5487 9.27154 13.6876 9.36209 13.8271 9.42856L13.8284 9.42914C14.3115 9.65214 14.812 9.78616 15.3151 9.91685L15.3155 9.91696C16.0383 10.1017 16.7771 10.1996 17.5174 10.2977C17.8275 10.3388 18.1379 10.3799 18.4474 10.4275Z" fill="#FF9900"/>
<path d="M18.4474 10.4275C18.695 10.4654 19.1074 10.5077 19.5326 10.5429C19.7314 10.5397 19.9209 10.5328 20.0714 10.5234C20.1466 10.5188 20.2129 10.5135 20.2661 10.5077C20.3162 10.5022 20.3635 10.4955 20.3951 10.4859C20.3984 10.4849 20.4017 10.4837 20.4049 10.4824C20.5011 10.4433 20.5739 10.379 20.6162 10.293C20.657 10.2099 20.6646 10.1165 20.6504 10.0237C20.6345 9.83943 20.5248 9.69407 20.3764 9.61468C20.2613 9.55308 20.1176 9.5181 19.985 9.49175C19.9338 9.48156 19.8849 9.47274 19.8382 9.46432L19.8382 9.46432C19.7575 9.44975 19.6836 9.43641 19.6163 9.41939C19.0104 9.24868 18.4934 9.19391 17.9306 9.13428L17.9305 9.13427C17.7623 9.11645 17.5899 9.09819 17.4099 9.07628C17.4064 9.07585 17.4029 9.07559 17.3994 9.07549C17.0671 9.06587 16.6827 9.02531 16.353 8.99053L16.3393 8.98908C16.0569 8.95388 15.774 8.91331 15.4885 8.87238L15.4389 8.86527C15.1368 8.82197 14.8318 8.7786 14.5239 8.7415C14.2278 8.70332 13.9329 8.67731 13.6407 8.65153L13.6407 8.65153L13.6396 8.65143L13.6379 8.6513L13.6363 8.65119C13.5241 8.64457 13.3758 8.68295 13.3187 8.83281C13.2475 8.98427 13.3301 9.11869 13.4258 9.1824C13.5487 9.27154 13.6876 9.36209 13.8271 9.42856L13.8284 9.42914C14.3115 9.65214 14.812 9.78616 15.3151 9.91685L15.3155 9.91696C16.0383 10.1017 16.7771 10.1996 17.5174 10.2977C17.8275 10.3388 18.1379 10.3799 18.4474 10.4275Z" stroke="#FF9900"/>
<path d="M26.8993 6.15074C26.7033 6.30584 26.3964 6.62357 26.1331 6.91611C26.0005 7.06348 25.8771 7.20664 25.7818 7.3229C25.7343 7.38097 25.6932 7.43297 25.6613 7.47579C25.6314 7.51611 25.6043 7.55522 25.5899 7.58481C25.5884 7.58792 25.587 7.5911 25.5858 7.59434C25.5494 7.69114 25.5474 7.78796 25.5823 7.87725C25.6159 7.96343 25.6798 8.03229 25.7579 8.08498C25.9048 8.19837 26.0866 8.21695 26.2459 8.16242C26.3696 8.12011 26.4929 8.03888 26.6023 7.95996C26.6446 7.92946 26.6843 7.89972 26.7222 7.87136L26.7222 7.87134C26.7878 7.82226 26.8478 7.77731 26.906 7.73974C27.4433 7.41305 27.8346 7.07259 28.2606 6.70192L28.2607 6.7019C28.388 6.59111 28.5184 6.47762 28.6568 6.36099C28.6595 6.35874 28.662 6.35637 28.6645 6.35388C28.8971 6.11768 29.188 5.86439 29.4374 5.64717L29.4478 5.63815C29.6654 5.45579 29.8874 5.27667 30.1114 5.09593L30.1503 5.06452C30.3873 4.87322 30.6263 4.67989 30.8627 4.48018C31.0918 4.28977 31.3112 4.09205 31.5285 3.89611L31.5285 3.8961L31.5293 3.89536L31.5306 3.89425L31.5318 3.89311C31.6128 3.81567 31.6851 3.68127 31.6132 3.53788C31.5496 3.38309 31.3943 3.35221 31.2823 3.37884C31.1331 3.40811 30.972 3.4481 30.8282 3.50492L30.8269 3.50543C30.3344 3.70696 29.8957 3.98162 29.4577 4.26041L29.4574 4.26065C28.5677 4.83186 27.7321 5.49243 26.9015 6.14895L26.8993 6.15074Z" fill="#FF9900"/>
<path d="M26.8993 6.15074C26.7033 6.30584 26.3964 6.62357 26.1331 6.91611C26.0005 7.06348 25.8771 7.20664 25.7818 7.3229C25.7343 7.38097 25.6932 7.43297 25.6613 7.47579C25.6314 7.51611 25.6043 7.55522 25.5899 7.58481C25.5884 7.58792 25.587 7.5911 25.5858 7.59434C25.5494 7.69114 25.5474 7.78796 25.5823 7.87725C25.6159 7.96343 25.6798 8.03229 25.7579 8.08498C25.9048 8.19837 26.0866 8.21695 26.2459 8.16242C26.3696 8.12011 26.4929 8.03888 26.6023 7.95996C26.6446 7.92946 26.6843 7.89972 26.7222 7.87136L26.7222 7.87134C26.7878 7.82226 26.8478 7.77731 26.906 7.73974C27.4433 7.41305 27.8346 7.07259 28.2606 6.70192L28.2607 6.7019C28.388 6.59111 28.5184 6.47762 28.6568 6.36099C28.6595 6.35874 28.662 6.35637 28.6645 6.35388C28.8971 6.11768 29.188 5.86439 29.4374 5.64717L29.4478 5.63815C29.6654 5.45579 29.8874 5.27667 30.1114 5.09593L30.1503 5.06452C30.3873 4.87322 30.6263 4.67989 30.8627 4.48018C31.0918 4.28977 31.3112 4.09205 31.5285 3.89611L31.5285 3.8961L31.5293 3.89536L31.5306 3.89425L31.5318 3.89311C31.6128 3.81567 31.6851 3.68127 31.6132 3.53788C31.5496 3.38309 31.3943 3.35221 31.2823 3.37884C31.1331 3.40811 30.972 3.4481 30.8282 3.50492L30.8269 3.50543C30.3344 3.70696 29.8957 3.98162 29.4577 4.26041L29.4574 4.26065C28.5677 4.83186 27.7321 5.49243 26.9015 6.14895L26.8993 6.15074Z" stroke="#FF9900"/>
<path d="M28.2321 9.24392C27.9825 9.26444 27.5605 9.32225 27.1782 9.41981C26.9856 9.46896 26.8029 9.51967 26.6587 9.56362C26.5867 9.58557 26.5235 9.60608 26.4731 9.62406C26.4257 9.64098 26.3813 9.6585 26.3528 9.67515C26.3498 9.67691 26.3469 9.67879 26.3441 9.68081C26.2597 9.74116 26.2039 9.82052 26.1829 9.914C26.1627 10.0042 26.1773 10.0968 26.2127 10.1838C26.2715 10.3593 26.4121 10.4752 26.5751 10.518C26.7015 10.5513 26.8494 10.552 26.9845 10.5469C27.0367 10.5449 27.0863 10.5422 27.1337 10.5395L27.1337 10.5395C27.2156 10.535 27.2906 10.5308 27.36 10.5318C28.0114 10.5034 28.3962 10.4688 28.6572 10.4454C28.8364 10.4293 28.9573 10.4184 29.0662 10.4184L29.0662 10.4184C29.234 10.3967 29.4058 10.3746 29.586 10.3541C29.5895 10.3538 29.593 10.3532 29.5964 10.3525C29.9218 10.2848 30.3052 10.2352 30.634 10.1926L30.6476 10.1908C30.9305 10.1596 31.2151 10.1335 31.5023 10.1072L31.5522 10.1026C31.8562 10.0747 32.1629 10.0462 32.471 10.0109C32.768 9.97939 33.0608 9.93635 33.351 9.89371L33.351 9.89371L33.3521 9.89354L33.3538 9.89329L33.3554 9.89301C33.466 9.87346 33.6013 9.80175 33.6217 9.64279C33.6554 9.479 33.5436 9.36743 33.4356 9.32764C33.2952 9.26944 33.139 9.21357 32.9877 9.18127L32.9863 9.18099C32.4643 9.07608 31.9461 9.06175 31.4262 9.05125L31.4258 9.05125C30.5544 9.03705 29.9007 9.09352 29.1071 9.16208C28.9364 9.17682 28.7593 9.19212 28.5722 9.2074L28.2321 9.24392Z" fill="#FF9900"/>
<path d="M28.2321 9.24392C27.9825 9.26444 27.5605 9.32225 27.1782 9.41981C26.9856 9.46896 26.8029 9.51967 26.6587 9.56362C26.5867 9.58557 26.5235 9.60608 26.4731 9.62406C26.4257 9.64098 26.3813 9.6585 26.3528 9.67515C26.3498 9.67691 26.3469 9.67879 26.3441 9.68081C26.2597 9.74116 26.2039 9.82052 26.1829 9.914C26.1627 10.0042 26.1773 10.0968 26.2127 10.1838C26.2715 10.3593 26.4121 10.4752 26.5751 10.518C26.7015 10.5513 26.8494 10.552 26.9845 10.5469C27.0367 10.5449 27.0863 10.5422 27.1337 10.5395L27.1337 10.5395C27.2156 10.535 27.2906 10.5308 27.36 10.5318C28.0114 10.5034 28.3962 10.4688 28.6572 10.4454C28.8364 10.4293 28.9573 10.4184 29.0662 10.4184L29.0662 10.4184C29.234 10.3967 29.4058 10.3746 29.586 10.3541C29.5895 10.3538 29.593 10.3532 29.5964 10.3525C29.9218 10.2848 30.3052 10.2352 30.634 10.1926L30.6476 10.1908C30.9305 10.1596 31.2151 10.1335 31.5023 10.1072L31.5522 10.1026C31.8562 10.0747 32.1629 10.0462 32.471 10.0109C32.768 9.97939 33.0608 9.93635 33.351 9.89371L33.351 9.89371L33.3521 9.89354L33.3538 9.89329L33.3554 9.89301C33.466 9.87346 33.6013 9.80175 33.6217 9.64279C33.6554 9.479 33.5436 9.36743 33.4356 9.32764C33.2952 9.26944 33.139 9.21357 32.9877 9.18127L32.9863 9.18099C32.4643 9.07608 31.9461 9.06175 31.4262 9.05125L31.4258 9.05125C30.5544 9.03705 29.9007 9.09352 29.1071 9.16208C28.9364 9.17682 28.7593 9.19212 28.5722 9.2074L28.2321 9.24392Z" stroke="#FF9900"/>
</svg>
